PathFileType	4	(X/Y/Z)	pose_F01_0-48.trc
DataRate	CameraRate	NumFrames	NumMarkers	Units	OrigDataRate	OrigDataStartFrame	OrigNumFrames
30	30	8	21	m	30	12	48
Frame#	Time	CHip			RHip			RKnee			RAnkle			RBigToe			RSmallToe			RHeel			LHip			LKnee			LAnkle			LBigToe			LSmallToe			LHeel			Neck			Nose			RShoulder			RElbow			RWrist			LShoulder			LElbow			LWrist			
		X1	Y1	Z1	X2	Y2	Z2	X3	Y3	Z3	X4	Y4	Z4	X5	Y5	Z5	X6	Y6	Z6	X7	Y7	Z7	X8	Y8	Z8	X9	Y9	Z9	X10	Y10	Z10	X11	Y11	Z11	X12	Y12	Z12	X13	Y13	Z13	X14	Y14	Z14	X15	Y15	Z15	X16	Y16	Z16	X17	Y17	Z17	X18	Y18	Z18	X19	Y19	Z19	X20	Y20	Z20	X21	Y21	Z21	
12	0.4	-0.10187861346287419	1.8667139822741265	-0.6630469806399043	-0.11944032914115461	1.8654417780518873	-0.601464456455493	-0.16139007243166023	1.7236317789991906	-0.509535808513343													-0.08574788062946474	1.867329899490911	-0.7338453652527617	-0.08780338927361138	1.7238235795251724	-0.6884621117431357	-0.10518474903790374	1.5989016744420939	-0.652120913161882	-0.10279910893100988	1.5700259895028934	-0.7228560430799814	-0.09338112151451161	1.5785091898983097	-0.7332181492296523	-0.10498333740171281	1.587282240650589	-0.6226786683012235	-0.0881185865484699	2.027687257152097	-0.6840564655058461	-0.10462968303481204	2.092241491048527	-0.7245107855085768	-0.10921562568918197	2.0289329290986364	-0.5953643894579898	-0.1307344436927502	1.9921791044073092	-0.5353980086966695	-0.21857844590782838	1.9724174717230545	-0.5161504948008603	-0.06608216422146637	2.0278656815428286	-0.7782313631705327	-1.5369086245412455	1.8773983161997525	0.8118111992276784	-0.04495358328379461	1.876279799832353	-0.8043265840818357
13	0.43333333333333335	-0.10220588533046954	1.8701318454872586	-0.6638725861324739	-0.1197886429761447	1.8690145148657697	-0.6023051154006591	-0.16366830799410612	1.7245821912863484	-0.5071216088380484													-0.08815665769422866	1.8711632456203597	-0.7322749676177999	-0.08553596138606838	1.726658161204179	-0.6912510489546377	-0.10485572379004125	1.6001056240287135	-0.6527289569197676	-0.1029157526855052	1.5701364703745158	-0.7228043915795622	-0.09346823512193028	1.5785884441201523	-0.7331633051611587	-0.10506084328970079	1.588070681035056	-0.6224281896911725	-0.08736127920106669	2.0275700876045826	-0.6809384045059095	-0.10250398156605407	2.0919459766309165	-0.7268437113605515	-0.1091999286519249	2.029190526965922	-0.5953150082601868	-0.1307344436927502	1.9921791044073092	-0.5353980086966695	-0.21857844590782838	1.9724174717230545	-0.5161504948008603	-0.06465337679184877	2.0275915791270807	-0.7721837090892046	-1.5369086245412455	1.8773983161997525	0.8118111992276784	-0.04375460376428469	1.8761246883734604	-0.8053158487339132
14	0.4666666666666667	-0.10200945026103438	1.8680149017779546	-0.6632142763514706	-0.11930083815429152	1.8668682695934447	-0.6016339413014582	-0.16525957603973146	1.7269106790566182	-0.5057074826646298													-0.08787677219531385	1.8697134289557686	-0.7318191294567669	-0.08578403935614748	1.7251738110089054	-0.6908262161710004	-0.10299322434337013	1.5985753071122188	-0.6544201214493365	-0.10504384292738435	1.569994764641656	-0.7205880467624387	-0.09346946798053216	1.578563787333413	-0.7331969391320398	-0.10613231085599863	1.5893083186587116	-0.6256708796470904	-0.0873702384666108	2.027540332199309	-0.6808786686378168	-0.10239899464699198	2.092296784452314	-0.7268266572175747	-0.10844069864049843	2.0287091993948985	-0.5921530587737416	-0.1307344436927502	1.9921791044073092	-0.5353980086966695	-0.21857844590782838	1.9724174717230545	-0.5161504948008603	-0.06391434255717077	2.0274904335409842	-0.7692642440847897	-1.5369086245412455	1.8773983161997525	0.8118111992276784	-0.04728835423518581	1.8740096583806864	-0.8013698012514898
15	0.5	-0.10096320522710799	1.8672479302287652	-0.6598152757760102	-0.11905858385852132	1.867034615823255	-0.6015074264298852	-0.16720014732767843	1.7258514564918184	-0.5033409534100934													-0.08687195943969243	1.8688063099089265	-0.7283994220510269	-0.08542148521396335	1.725316326470831	-0.6911504628317754	-0.10489564210516575	1.6000319468118505	-0.6527391110447047	-0.10511168753169293	1.5702130604342313	-0.7205819607851495	-0.0955089077162629	1.5775341024037453	-0.7311791798999266	-0.105970234605724	1.5881053997421806	-0.625910510893435	-0.08730085521859869	2.027721330850947	-0.6808740956611645	-0.10234845355112737	2.0923385793737315	-0.7268009178911999	-0.10827848424314747	2.0300946489523897	-0.5920734570181581	-0.1307344436927502	1.9921791044073092	-0.5353980086966695	-0.21857844590782838	1.9724174717230545	-0.5161504948008603	-0.06242171995961816	2.0276391918689423	-0.7745486421432701	-1.5369086245412455	1.8773983161997525	0.8118111992276784	-0.05082210470608694	1.8718946283879128	-0.7974237537690666
16	0.5333333333333333	-0.10331549498347475	1.8682766320954864	-0.657636942397729	-0.12152934820875178	1.8667984089898937	-0.5991943289667438	-0.16967165328613573	1.7280197116941582	-0.5009030555560965													-0.09018597177131772	1.8696165305367656	-0.72930874937068	-0.08589544271979421	1.7290843594251533	-0.6911919371236246	-0.10415428367391798	1.6004513211662803	-0.6494971681312555	-0.10293960651721465	1.570339249846604	-0.7228828528809363	-0.09352613122761172	1.5788567839335748	-0.733237313569658	-0.1052987805785959	1.5890647089833678	-0.6222697632690162	-0.0866327642336124	2.0276547691141786	-0.6777072632439856	-0.10013557802341434	2.093596761553637	-0.7288823926119848	-0.1075659767969057	2.03115297394885	-0.5893385999893596	-0.1307344436927502	1.9921791044073092	-0.5353980086966695	-0.21857844590782838	1.9724174717230545	-0.5161504948008603	-0.06398274741987996	2.027512040264863	-0.7691048182544266	-1.536945549547693	1.8774004044896133	0.8118480029257379	-0.050013263328240055	1.8767990493428997	-0.7950990996114705
17	0.5666666666666667	-0.10518909299514706	1.8684917655226485	-0.6551356649588973	-0.1232910524329195	1.8693524745018704	-0.597098063026308	-0.1694239581635291	1.7263178774567562	-0.5008860431351895													-0.0892416813444504	1.8698248924120824	-0.7261479028166812	-0.08792026669340534	1.7238397711836473	-0.6883050291946402	-0.10270245016501901	1.5999903335543955	-0.6550011908639306	-0.10368106998841498	1.5701471620173624	-0.7259618682261495	-0.09344696613086786	1.5786282691957687	-0.7332846847751839	-0.10310080570460634	1.5889404663886006	-0.624732609084687	-0.087232298518163	2.029048530954568	-0.6807577609502176	-0.10002099651654625	2.094850724107035	-0.7287331496846455	-0.10751767380191313	2.0300383536182984	-0.5888492902841933	-0.1307344436927502	1.9921791044073092	-0.5353980086966695	-0.21857844590782838	1.9724174717230545	-0.5161504948008603	-0.0624260904029069	2.0277518228394382	-0.7746198374092716	-1.5408746931275041	1.878320353641647	0.8184150890935437	-0.05102676619763548	1.8694031505822273	-0.7975800536567598
18	0.6	-0.10994579094411396	1.8691763258454435	-0.6506672764306037	-0.12779642759817628	1.8690880076102834	-0.5925226431425288	-0.1705754415716064	1.7252134475891965	-0.5039279845461075													-0.09463103858631064	1.8694157030919905	-0.7245355640114388	-0.09217921117139105	1.7223664421959195	-0.6836159409283397	-0.10268039524904626	1.5996056382404136	-0.6550341783357027	-0.10578233403386185	1.5718358635684964	-0.7242659216947392	-0.09527491779987779	1.5789662716866828	-0.7318615449265409	-0.1057112675832133	1.5872122286651476	-0.6260015925734921	-0.08435940351554172	2.0293578208487077	-0.67994555765206	-0.09994237691909398	2.096155546856024	-0.728571423262655	-0.10743053123934734	2.0309287127613196	-0.5887918770482174	-0.1307344436927502	1.9921791044073092	-0.5353980086966695	-0.21857844590782838	1.9724174717230545	-0.5161504948008603	-0.06163916617330321	2.027915689033914	-0.7715683667357615	-1.5448038367073154	1.8792403027936808	0.8249821752613494	-0.05594422067233087	1.8684472681769033	-0.7934571643122816
19	0.6333333333333333	-0.11324631179596448	1.8697811538604412	-0.6516707431450468	-0.1304007949360155	1.867598104497669	-0.5900298925758256	-0.17051620660725586	1.7246427741872028	-0.5040517199448622													-0.09504864493719486	1.870481515229131	-0.7248582812166695	-0.09206623930243564	1.7238297765409771	-0.6840571854499834	-0.10488413323848284	1.5999209348913248	-0.652698171870625	-0.10494341661507853	1.5695675780203446	-0.720543958924555	-0.09554585483132094	1.5780129188573455	-0.7309336624766869	-0.10524699664555782	1.5887126339586353	-0.6224452706688287	-0.08640832309270749	2.0305212368511794	-0.6774854776238057	-0.09996095347514038	2.097385193646923	-0.7291512823280972	-0.10874624099260066	2.031739908836389	-0.5839239845667183	-0.1307344436927502	1.9921791044073092	-0.5353980086966695	-0.21857844590782838	1.9724174717230545	-0.5161504948008603	-0.06159964859602187	2.0292645192684615	-0.7714001950766239	-1.5487329802871266	1.8801602519457146	0.8315492614291552	-0.060861675147026256	1.8674913857715794	-0.7893342749678034
